<svg width="693" height="491" viewBox="0 0 693 491" fill="none" xmlns="http://www.w3.org/2000/svg">
<g clip-path="url(#clip0_5_226)">
<path d="M49.3016 489.766C49.3016 489.766 -36.395 399.342 18.1787 293.026C72.7524 186.71 145.988 240.21 142.498 116.445C139.007 -7.31902 310.993 -17.8966 365.731 18.0091C420.468 53.9147 425.3 77.0398 538.327 62.7811C651.353 48.5224 703.924 153.861 666.775 226.955C623.387 312.332 754.083 320.603 654.772 489.965L49.3016 489.766Z" fill="#72C480"/>
<g opacity="0.4">
<path d="M641.488 171.962C641.491 177.342 641.009 182.711 640.049 188.004C637.817 200.256 633.024 211.9 625.983 222.175C609.934 245.634 582.949 261.029 552.364 261.029C515.984 261.029 484.697 239.25 470.846 208.02C469.003 203.875 467.486 199.592 466.308 195.211C462.6 181.424 462.239 166.952 465.255 152.998C465.255 152.929 465.286 152.86 465.301 152.791C470.025 131.472 482.401 112.621 500.09 99.8028C501.92 98.4741 503.811 97.2145 505.745 96.0267C519.762 87.4039 535.904 82.852 552.364 82.881C554.632 82.881 556.877 82.9654 559.101 83.1341C574.957 84.3023 590.206 89.7186 603.243 98.8135C613.014 105.606 621.33 114.28 627.704 124.326C629.068 126.481 630.342 128.694 631.525 130.966C634.395 136.484 636.672 142.289 638.32 148.285C640.433 156 641.499 163.963 641.488 171.962Z" fill="#D7E5FF"/>
<path d="M522.082 132.091C518.525 137.719 523.567 147.494 512.896 144.828C502.225 142.162 495.704 140.977 495.114 146.899C494.524 152.82 503.117 152.826 503.117 159.038C503.117 165.25 499.261 167.315 493.333 164.361C487.405 161.408 485.698 157.108 478.809 159.774C471.92 162.44 467.917 160.663 466.36 155.331C466.122 154.497 465.748 153.709 465.252 152.998C465.252 152.929 465.283 152.86 465.298 152.791C470.022 131.472 482.398 112.621 500.087 99.8028C501.917 98.4741 503.808 97.2145 505.742 96.0267C508.519 96.1303 511.84 97.1771 514.663 100.683C520.887 108.387 525.023 104.537 523.555 113.42C522.087 122.304 524.444 123.486 529.48 123.198C534.516 122.911 540.45 122.911 541.04 126.753C541.63 130.595 525.639 126.462 522.082 132.091Z" fill="#AEC3FF"/>
<path d="M558.983 185.404C558.983 185.404 551.13 187.923 549.055 182.442C546.98 176.96 549.343 175.778 542.384 174.151C535.426 172.523 534.827 167.78 530.381 168.373C525.935 168.965 528.159 170.743 522.971 174.593C517.782 178.444 513.043 176.667 513.187 183.776C513.33 190.885 521.04 191.996 522.594 196.66C524.148 201.325 521.483 203.324 524.818 206.878C528.154 210.433 534.375 208.892 531.486 213.766C528.597 218.641 524.151 222.428 526.375 229.983C528.6 237.538 527.04 237.981 530.821 243.31C534.603 248.639 541.935 250.42 543.046 246.865C544.157 243.31 537.932 238.646 539.935 235.091C541.938 231.536 545.268 233.981 546.603 228.649C547.938 223.317 553.346 223.317 553.797 219.616C554.249 215.914 547.276 210.286 549.938 207.928C552.6 205.57 557.938 212.222 562.088 206.297C566.238 200.373 563.423 195.636 567.72 190.008C572.016 184.38 561.947 182.146 558.983 185.404Z" fill="#AEC3FF"/>
<path d="M641.488 171.962C641.491 177.342 641.01 182.711 640.049 188.004C637.817 200.256 633.024 211.9 625.983 222.175C623.663 222.973 621.132 222.906 618.858 221.986C607.741 217.542 615.965 205.547 620.412 199.554C624.858 193.56 613.522 196.22 605.298 190.667C597.073 185.114 606.187 170.231 597.738 172.672C589.289 175.114 579.067 178.229 574.175 170.007C569.283 161.784 578.621 160.456 574.399 153.568C570.178 146.68 576.842 142.683 585.291 142.018C593.741 141.354 592.627 135.352 603.073 134.463C613.519 133.575 613.298 146.904 624.858 146.016C636.418 145.127 635.897 147.793 635.897 147.793C636.73 147.773 637.556 147.946 638.311 148.299C640.426 156.009 641.495 163.968 641.488 171.962Z" fill="#AEC3FF"/>
<path d="M631.514 130.975C621.902 135.648 618.043 122.937 609.83 126.759C601.545 130.609 602.995 123.204 596.477 118.465C589.959 113.725 576.909 122.315 577.507 114.91C578.106 107.504 587.867 109.578 589.956 103.657C592.046 97.735 601.516 99.219 601.516 99.219C602.071 99.0084 602.652 98.8768 603.243 98.8279C613.014 105.62 621.33 114.294 627.704 124.34C629.06 126.491 630.33 128.703 631.514 130.975Z" fill="#AEC3FF"/>
<path d="M550.537 105.431C550.537 105.431 555.573 98.1665 547.573 96.0239C539.573 93.8814 539.717 96.6854 533.495 96.0239C527.273 95.3624 524.824 100.174 529.492 105.431C534.16 110.688 537.938 120.78 542.154 115.402C546.37 110.024 545.573 105.952 550.537 105.431Z" fill="#AEC3FF"/>
</g>
<path d="M584.33 158.463V435.7C584.33 440.551 580.825 444.486 576.506 444.486H176.239C171.923 444.486 168.415 440.551 168.415 435.7V158.463C168.415 153.608 171.92 149.677 176.239 149.677H576.506C580.825 149.662 584.33 153.594 584.33 158.463Z" fill="#07224D"/>
<path d="M584.33 157.482V178.416H168.415V157.482C168.415 156.455 168.617 155.438 169.01 154.489C169.403 153.541 169.98 152.679 170.706 151.953C171.433 151.226 172.295 150.65 173.245 150.257C174.194 149.864 175.212 149.662 176.239 149.662H576.506C578.581 149.662 580.571 150.486 582.038 151.953C583.506 153.419 584.33 155.408 584.33 157.482Z" fill="#367E7F"/>
<path d="M181.137 164.039C181.137 163.319 181.351 162.615 181.751 162.016C182.151 161.417 182.72 160.951 183.386 160.675C184.052 160.4 184.784 160.327 185.491 160.468C186.198 160.608 186.847 160.955 187.356 161.464C187.866 161.974 188.213 162.622 188.354 163.329C188.494 164.035 188.422 164.767 188.146 165.432C187.87 166.097 187.404 166.666 186.804 167.066C186.205 167.466 185.501 167.68 184.78 167.68C184.302 167.68 183.828 167.586 183.386 167.403C182.943 167.221 182.542 166.952 182.203 166.614C181.865 166.276 181.597 165.875 181.414 165.433C181.231 164.991 181.137 164.517 181.137 164.039Z" fill="#DFEBFD"/>
<path d="M195.491 164.039C195.491 163.319 195.705 162.615 196.105 162.017C196.505 161.418 197.074 160.951 197.739 160.676C198.404 160.4 199.137 160.327 199.843 160.467C200.55 160.608 201.199 160.954 201.709 161.462C202.218 161.971 202.566 162.619 202.707 163.325C202.848 164.031 202.777 164.763 202.502 165.428C202.227 166.094 201.761 166.663 201.163 167.063C200.564 167.464 199.861 167.679 199.14 167.68C198.661 167.681 198.187 167.588 197.744 167.405C197.301 167.223 196.899 166.954 196.56 166.616C196.221 166.278 195.952 165.876 195.768 165.434C195.585 164.992 195.491 164.518 195.491 164.039Z" fill="#DFEBFD"/>
<path d="M210.205 164.039C210.205 163.319 210.419 162.615 210.819 162.016C211.22 161.417 211.789 160.951 212.454 160.675C213.12 160.4 213.853 160.327 214.559 160.468C215.266 160.608 215.915 160.955 216.425 161.464C216.934 161.974 217.281 162.622 217.422 163.329C217.562 164.035 217.49 164.767 217.214 165.432C216.939 166.097 216.472 166.666 215.873 167.066C215.273 167.466 214.569 167.68 213.849 167.68C213.37 167.68 212.896 167.586 212.454 167.403C212.012 167.221 211.61 166.952 211.272 166.614C210.933 166.276 210.665 165.875 210.482 165.433C210.299 164.991 210.205 164.517 210.205 164.039Z" fill="#DFEBFD"/>
<path opacity="0.5" d="M436.074 358.168H392.209V402.005H436.074V358.168Z" fill="#EBF3FA"/>
<path d="M395.504 396.998L408.459 373.655L417.988 386.639L422.744 381.443L432.825 396.998H395.504Z" fill="#72C480"/>
<path d="M414.635 370.304C414.635 369.642 414.832 368.994 415.2 368.443C415.568 367.892 416.092 367.463 416.705 367.209C417.317 366.955 417.991 366.889 418.642 367.018C419.292 367.148 419.889 367.467 420.358 367.935C420.827 368.404 421.146 369.001 421.276 369.651C421.405 370.301 421.339 370.974 421.085 371.587C420.831 372.199 420.402 372.722 419.85 373.09C419.299 373.458 418.651 373.655 417.988 373.655C417.547 373.655 417.111 373.568 416.705 373.4C416.298 373.231 415.928 372.985 415.617 372.674C415.306 372.362 415.059 371.993 414.89 371.587C414.722 371.18 414.635 370.744 414.635 370.304Z" fill="#72C480"/>
<path opacity="0.5" d="M501.581 277.922H392.209V341.275H501.581V277.922Z" fill="#EBF3FA"/>
<path d="M434.552 293.368V325.829L459.234 309.6L434.552 293.368Z" fill="#72C480"/>
<path d="M551.619 230.754C551.629 237.614 548.949 244.205 544.154 249.114C541.827 251.522 539.041 253.439 535.959 254.75C532.877 256.062 529.564 256.742 526.214 256.749H230.24C215.135 256.749 202.775 245.05 202.775 230.754C202.775 223.605 205.863 217.105 210.833 212.397C216.085 207.464 223.032 204.732 230.24 204.765H526.214C540.188 204.765 551.619 216.455 551.619 230.754Z" fill="#EBF3FA"/>
<path d="M551.619 230.754C551.629 237.614 548.949 244.205 544.154 249.114C541.827 251.522 539.041 253.438 535.959 254.75C532.877 256.062 529.564 256.742 526.214 256.749H472.656V204.765H526.214C540.188 204.765 551.619 216.455 551.619 230.754Z" fill="#72C480"/>
<path d="M517.722 240.204C514.931 240.209 512.209 239.333 509.945 237.701C507.681 236.069 505.99 233.765 505.113 231.117C504.235 228.469 504.217 225.611 505.059 222.952C505.902 220.293 507.563 217.967 509.805 216.306C511.49 215.059 513.446 214.23 515.514 213.886C517.581 213.542 519.701 213.692 521.699 214.325C523.697 214.958 525.516 216.055 527.007 217.527C528.499 218.999 529.62 220.803 530.279 222.791C530.937 224.78 531.115 226.896 530.797 228.966C530.479 231.037 529.674 233.002 528.448 234.701C527.223 236.401 525.612 237.785 523.747 238.742C521.883 239.699 519.818 240.2 517.722 240.204ZM511.103 218.06C509.343 219.363 508.01 221.158 507.271 223.219C506.532 225.28 506.422 227.513 506.953 229.636C507.484 231.76 508.634 233.678 510.256 235.149C511.879 236.619 513.901 237.576 516.068 237.898C518.234 238.22 520.447 237.892 522.428 236.957C524.408 236.021 526.066 234.52 527.192 232.643C528.319 230.766 528.863 228.597 528.756 226.411C528.649 224.224 527.896 222.119 526.591 220.361C524.84 218.007 522.226 216.442 519.323 216.011C516.42 215.58 513.464 216.317 511.103 218.06Z" fill="white"/>
<path d="M508.585 235.061L507.285 233.307L492.744 244.064L494.043 245.818L508.585 235.061Z" fill="white"/>
<path d="M488.323 248.682C488.17 248.477 488.059 248.243 487.997 247.995C487.935 247.747 487.922 247.488 487.96 247.235C487.997 246.982 488.085 246.739 488.217 246.519C488.349 246.3 488.523 246.108 488.729 245.956L497.293 239.629C497.498 239.477 497.732 239.367 497.981 239.305C498.229 239.243 498.487 239.231 498.74 239.269C498.993 239.307 499.236 239.394 499.455 239.526C499.675 239.658 499.866 239.832 500.018 240.037C500.171 240.243 500.281 240.476 500.344 240.724C500.406 240.972 500.418 241.23 500.381 241.483C500.343 241.736 500.256 241.979 500.124 242.199C499.992 242.418 499.818 242.609 499.612 242.761L491.048 249.088C490.842 249.24 490.609 249.35 490.361 249.412C490.112 249.474 489.854 249.487 489.601 249.449C489.348 249.412 489.105 249.324 488.886 249.193C488.666 249.061 488.475 248.888 488.323 248.682Z" fill="white"/>
<path d="M290.316 194.929C290.06 195.211 289.89 195.561 289.827 195.937C289.764 196.313 289.811 196.699 289.962 197.048C290.474 198.461 292.161 200.039 294.123 201.613C294.374 201.817 294.595 202.001 294.791 202.17L294.941 202.306L295.056 202.409C296.883 204.094 296.207 204.48 299.482 207.902C303.223 211.799 305.813 211.871 306.541 211.514C307.163 211.227 305.902 209.145 304.503 206.824C304.437 206.712 304.371 206.596 304.299 206.484C304.115 206.174 303.931 205.86 303.744 205.55C302.106 202.754 302.529 201.443 302.918 197.284C303.234 193.902 308.187 178.398 308.187 178.398L301.013 177.156C301.013 177.156 298.846 189.505 296.463 191.403C295.188 192.418 293.761 192.43 292.538 193.18L292.282 193.341C291.559 193.781 290.898 194.315 290.316 194.929Z" fill="#FFB27D"/>
<path d="M290.316 194.929C290.06 195.211 289.89 195.561 289.827 195.937C289.764 196.313 289.811 196.698 289.962 197.048C290.587 198.461 292.233 200.028 294.129 201.598C294.377 201.805 294.595 201.992 294.791 202.173L294.941 202.308L295.056 202.412C296.883 204.097 296.207 204.483 299.482 207.905C303.223 211.802 305.813 211.874 306.541 211.517C307.163 211.23 305.902 209.147 304.503 206.827C301.883 205.802 299.579 204.104 297.827 201.903C295.652 199.131 294.178 195.596 292.699 193.425L292.276 193.347C291.555 193.785 290.896 194.317 290.316 194.929Z" fill="#233862"/>
<path d="M348.222 190.468C348.665 192.683 351.825 192.315 355.356 191.455C358.887 190.595 358.047 191.619 363.071 191.064C368.096 190.509 369.618 188.639 369.771 187.9C369.909 187.239 367.425 187.003 364.764 186.695L363.756 186.575C360.749 186.198 358.548 184.257 355.82 182.663C353.23 181.156 349.373 175.01 349.373 175.01L342.484 175.554C342.484 175.554 346.098 181.041 347.494 183.428C348.317 184.832 348.274 186.69 348.17 188.122C348.083 188.903 348.101 189.692 348.222 190.468Z" fill="#FFB27D"/>
<path d="M355.356 191.455C358.884 190.592 358.047 191.619 363.071 191.064C368.096 190.509 369.618 188.639 369.771 187.9C369.909 187.239 367.425 187.003 364.764 186.695L364.738 186.747C362.585 188.127 360.099 188.898 357.543 188.979C354.133 189.062 350.524 188.084 348.17 188.116C348.083 188.9 348.1 189.692 348.222 190.471C348.665 192.686 351.825 192.315 355.356 191.455Z" fill="#233862"/>
<path d="M321.833 146.43L315.401 163.748L306.97 186.359C305.469 186.47 303.959 186.332 302.503 185.95C300.489 185.375 298.187 183.845 298.187 183.845C298.187 183.845 300.529 159.564 304.889 145.627C306.006 142.05 307.26 139.157 308.63 137.526C315.401 129.557 321.833 146.43 321.833 146.43Z" fill="#F4904D"/>
<path d="M315.295 118.922C311.629 117.737 302.057 118.899 291.697 120.771C290.296 121.023 288.852 120.844 287.554 120.258C286.257 119.672 285.168 118.707 284.431 117.49L258.318 115.442C258.318 115.442 249.685 134.535 254.407 146.706C255.101 148.495 256.62 149.61 258.972 149.651C258.972 149.651 274.75 149.677 279.798 149.68C292.782 149.68 307.283 140.764 309.151 140.393C312.222 139.781 313.445 145.915 316.512 152.36C319.58 158.805 345.356 180.895 345.356 180.895C345.356 180.895 349.319 180.935 350.956 180.319C352.717 179.658 353.362 178.801 353.362 178.801C353.362 178.801 324.809 121.993 315.295 118.922Z" fill="#FFA561"/>
<path d="M281.671 40.8554C280.165 39.9599 278.436 39.5101 276.684 39.5584C275.879 39.5786 275.073 39.5295 274.276 39.4117C264.31 37.9479 258.304 52.4108 257.95 56.7821C257.303 64.8088 253.058 66.0311 247.072 71.0553C235.078 81.1209 238.589 92.8402 245.144 97.1943C249.078 99.8057 256.01 97.1943 256.01 97.1943C256.108 97.2634 274.978 86.6628 284.279 81.5494C298.218 79.5766 287.271 44.1914 281.671 40.8554Z" fill="#233862"/>
<path d="M276.486 77.1924C276.526 77.2182 271.91 78.7942 268.822 77.4253C265.921 76.1427 263.723 71.3658 263.766 71.3658C265.087 71.3054 266.537 70.1493 267.657 62.577L268.218 62.7812L277.674 66.1834C277.674 66.1834 276.989 69.2175 276.543 72.1049C276.169 74.5264 275.976 76.8501 276.486 77.1924Z" fill="#FFB27D"/>
<path d="M277.674 66.1834C277.674 66.1834 277.297 67.8198 276.745 70.8769C271.314 69.8991 268.975 65.7147 268.218 62.7812L277.674 66.1834Z" fill="#ED975D"/>
<path d="M279.081 69.1946C279.081 69.1946 266.131 67.469 267.352 59.4165C268.572 51.364 267.703 45.7445 276.017 46.5152C284.33 47.2859 285.473 50.5961 285.717 53.3771C285.962 56.1581 282.48 69.439 279.081 69.1946Z" fill="#FFB27D"/>
<path d="M285.248 48.9712C285.248 48.9712 276.963 56.1005 271.329 56.6757C265.694 57.2509 263.559 55.4391 263.559 55.4391C265.807 53.4324 267.618 50.9851 268.88 48.2493C269.167 47.6048 269.621 47.0485 270.195 46.6379C270.769 46.2274 271.443 45.9775 272.146 45.9141C276.172 45.5604 283.801 45.4051 285.248 48.9712Z" fill="#233862"/>
<path d="M280.071 48.3299C280.071 48.3299 282.84 51.0074 283.712 52.9946C284.555 54.9128 284.805 59.4941 284.135 61.3146C284.135 61.3146 288.451 52.9285 286.011 48.8504C283.421 44.528 280.071 48.3299 280.071 48.3299Z" fill="#233862"/>
<path d="M287.375 96.2452C286.975 122.416 287.26 116.952 284.394 119.434C283.703 120.032 281.763 120.388 279.214 120.555C271.182 121.084 257.055 119.759 256.528 118.275C254.678 113.141 255.985 111.548 254.442 103.688C254.281 102.854 254.082 101.948 253.849 100.965C252.563 95.5665 251.308 93.7288 255.884 85.0608C260.034 77.2096 264.342 70.8366 264.73 71.0667C275.665 77.5605 276.549 72.1049 276.549 72.1049C276.549 72.1049 287.571 83.4791 287.375 96.2452Z" fill="#AFCDFB"/>
<path d="M315.401 163.749L306.97 186.359C305.469 186.47 303.959 186.332 302.503 185.95C300.489 185.375 298.187 183.845 298.187 183.845C298.187 183.845 300.529 159.564 304.889 145.627L315.401 163.749Z" fill="#FFA561"/>
<path d="M276.552 72.105C276.552 72.105 287.807 74.0146 289.128 78.8576C290.449 83.7006 294.788 113.098 294.788 113.098C294.788 113.098 291.623 116.195 288.972 113.552C286.322 110.91 280.661 86.0474 280.661 86.0474L276.552 72.105Z" fill="#AFCDFB"/>
<path d="M279.208 120.555C271.176 121.084 257.049 119.759 256.523 118.275C254.672 113.141 255.979 111.548 254.436 103.688L258.315 92.7885C258.315 92.7885 257.671 104.928 261.251 108.123C264.831 111.318 275.927 114.292 277.654 116.96C278.494 118.24 279.047 119.526 279.208 120.555Z" fill="#95B3EF"/>
<path d="M270.008 115.448C270.008 115.448 277.933 113.688 279.217 114.389C280.5 115.091 283.617 117.654 284.008 118.545C284.399 119.437 281.162 117.866 280.109 117.585C279.427 117.4 277.634 118.025 276.745 118.321C273.004 119.563 270.701 118.922 270.701 118.922L270.008 115.448Z" fill="#FFB27D"/>
<path d="M264.716 71.061C264.716 71.061 254.068 71.711 250.393 76.8445C245.213 84.0687 234.911 114.864 240.802 118.974C247.441 123.601 271.018 120.193 271.018 120.193C271.018 120.193 271.804 116.529 270.713 114.757C269.622 112.986 251.887 110.113 251.069 109.293C250.252 108.474 261.308 93.3435 261.308 90.8875C261.308 88.4315 264.716 71.061 264.716 71.061Z" fill="#AFCDFB"/>
<path d="M279.594 116.592C279.594 116.592 281.251 118.735 281.798 118.991C282.072 119.14 282.383 119.206 282.693 119.181L281.574 117.167L279.594 116.592Z" fill="#FFB27D"/>
<path d="M279.211 114.389L284.034 116.733C283.939 116.85 283.815 116.939 283.675 116.993C283.535 117.047 283.383 117.064 283.234 117.041C282.638 117.015 281.139 116.466 281.139 116.466L279.211 114.389Z" fill="#FFB27D"/>
<path d="M320.426 119.911L270.005 119.894V121.004L319.98 121.021L320.426 119.911Z" fill="#233862"/>
<path d="M281.795 121.01L319.98 121.021L331.474 92.4836L293.352 92.4692L281.795 121.01Z" fill="#233862"/>
<path d="M310.345 106.748C310.633 105.744 310.058 104.93 309.05 104.93C308.522 104.96 308.015 105.149 307.596 105.473C307.178 105.797 306.868 106.241 306.708 106.745C306.42 107.749 306.996 108.563 308.006 108.563C308.534 108.533 309.04 108.344 309.458 108.02C309.876 107.695 310.186 107.252 310.345 106.748Z" fill="white"/>
<path d="M284.256 283.843H215.316C213.881 283.843 212.718 285.006 212.718 286.44V287.533C212.718 288.967 213.881 290.13 215.316 290.13H284.256C285.691 290.13 286.854 288.967 286.854 287.533V286.44C286.854 285.006 285.691 283.843 284.256 283.843Z" fill="#72C480"/>
<path d="M248.879 311.748H214.864C214.295 311.748 213.749 311.522 213.346 311.12C212.944 310.717 212.718 310.172 212.718 309.603C212.718 309.034 212.944 308.488 213.346 308.086C213.749 307.683 214.295 307.457 214.864 307.457H248.879C249.161 307.457 249.44 307.513 249.701 307.621C249.961 307.728 250.198 307.886 250.397 308.086C250.597 308.285 250.755 308.521 250.863 308.782C250.971 309.042 251.026 309.321 251.026 309.603C251.026 309.884 250.971 310.163 250.863 310.424C250.755 310.684 250.597 310.921 250.397 311.12C250.198 311.319 249.961 311.477 249.701 311.585C249.44 311.693 249.161 311.748 248.879 311.748Z" fill="white"/>
<path d="M274.926 298.459H214.715C213.612 298.459 212.718 299.352 212.718 300.454V300.754C212.718 301.856 213.612 302.749 214.715 302.749H274.926C276.029 302.749 276.923 301.856 276.923 300.754V300.454C276.923 299.352 276.029 298.459 274.926 298.459Z" fill="white"/>
<path d="M340.8 298.459H284.707C283.641 298.459 282.776 299.323 282.776 300.388V300.82C282.776 301.885 283.641 302.749 284.707 302.749H340.8C341.867 302.749 342.731 301.885 342.731 300.82V300.388C342.731 299.323 341.867 298.459 340.8 298.459Z" fill="white"/>
<path d="M291.306 311.748H257.291C256.722 311.748 256.176 311.522 255.773 311.12C255.37 310.717 255.144 310.172 255.144 309.603C255.144 309.034 255.37 308.488 255.773 308.086C256.176 307.683 256.722 307.457 257.291 307.457H291.306C291.875 307.457 292.422 307.683 292.824 308.086C293.227 308.488 293.453 309.034 293.453 309.603C293.453 309.884 293.397 310.163 293.29 310.424C293.182 310.684 293.023 310.921 292.824 311.12C292.625 311.319 292.388 311.477 292.128 311.585C291.867 311.693 291.588 311.748 291.306 311.748Z" fill="white"/>
<path d="M368.205 283.843H299.266C297.831 283.843 296.667 285.006 296.667 286.44V287.533C296.667 288.967 297.831 290.13 299.266 290.13H368.205C369.641 290.13 370.804 288.967 370.804 287.533V286.44C370.804 285.006 369.641 283.843 368.205 283.843Z" fill="#72C480"/>
<path d="M284.256 396.389H215.316C213.881 396.389 212.718 397.552 212.718 398.986V400.079C212.718 401.513 213.881 402.676 215.316 402.676H284.256C285.691 402.676 286.854 401.513 286.854 400.079V398.986C286.854 397.552 285.691 396.389 284.256 396.389Z" fill="#72C480"/>
<path d="M248.879 424.291H214.864C214.295 424.291 213.749 424.065 213.346 423.662C212.944 423.26 212.718 422.714 212.718 422.145C212.718 421.864 212.773 421.585 212.881 421.324C212.989 421.064 213.147 420.828 213.346 420.628C213.546 420.429 213.782 420.271 214.043 420.163C214.303 420.055 214.582 420 214.864 420H248.879C249.161 420 249.44 420.055 249.701 420.163C249.961 420.271 250.198 420.429 250.397 420.628C250.597 420.828 250.755 421.064 250.863 421.324C250.971 421.585 251.026 421.864 251.026 422.145C251.026 422.427 250.971 422.706 250.863 422.966C250.755 423.227 250.597 423.463 250.397 423.662C250.198 423.862 249.961 424.02 249.701 424.128C249.44 424.235 249.161 424.291 248.879 424.291Z" fill="white"/>
<path d="M274.926 411.004H214.715C213.612 411.004 212.718 411.898 212.718 413V413.299C212.718 414.401 213.612 415.295 214.715 415.295H274.926C276.029 415.295 276.923 414.401 276.923 413.299V413C276.923 411.898 276.029 411.004 274.926 411.004Z" fill="white"/>
<path d="M340.8 411.004H284.707C283.641 411.004 282.776 411.868 282.776 412.934V413.365C282.776 414.431 283.641 415.295 284.707 415.295H340.8C341.867 415.295 342.731 414.431 342.731 413.365V412.934C342.731 411.868 341.867 411.004 340.8 411.004Z" fill="white"/>
<path d="M291.306 424.291H257.291C256.722 424.291 256.176 424.065 255.773 423.662C255.37 423.26 255.144 422.714 255.144 422.145C255.144 421.864 255.2 421.585 255.308 421.324C255.416 421.064 255.574 420.828 255.773 420.628C255.972 420.429 256.209 420.271 256.47 420.163C256.73 420.055 257.009 420 257.291 420H291.306C291.588 420 291.867 420.055 292.128 420.163C292.388 420.271 292.625 420.429 292.824 420.628C293.023 420.828 293.182 421.064 293.29 421.324C293.397 421.585 293.453 421.864 293.453 422.145C293.453 422.427 293.397 422.706 293.29 422.966C293.182 423.227 293.023 423.463 292.824 423.662C292.625 423.862 292.388 424.02 292.128 424.128C291.867 424.235 291.588 424.291 291.306 424.291Z" fill="white"/>
<path d="M368.205 396.389H299.266C297.831 396.389 296.667 397.552 296.667 398.986V400.079C296.667 401.513 297.831 402.676 299.266 402.676H368.205C369.641 402.676 370.804 401.513 370.804 400.079V398.986C370.804 397.552 369.641 396.389 368.205 396.389Z" fill="#72C480"/>
<path d="M284.256 340.116H215.316C213.881 340.116 212.718 341.279 212.718 342.713V343.806C212.718 345.24 213.881 346.403 215.316 346.403H284.256C285.691 346.403 286.854 345.24 286.854 343.806V342.713C286.854 341.279 285.691 340.116 284.256 340.116Z" fill="#72C480"/>
<path d="M248.879 368.018H214.864C214.295 368.018 213.749 367.792 213.346 367.39C212.944 366.987 212.718 366.442 212.718 365.873C212.718 365.304 212.944 364.758 213.346 364.356C213.749 363.953 214.295 363.727 214.864 363.727H248.879C249.161 363.727 249.44 363.783 249.701 363.891C249.961 363.998 250.198 364.156 250.397 364.356C250.597 364.555 250.755 364.791 250.863 365.052C250.971 365.312 251.026 365.591 251.026 365.873C251.026 366.154 250.971 366.433 250.863 366.694C250.755 366.954 250.597 367.191 250.397 367.39C250.198 367.589 249.961 367.747 249.701 367.855C249.44 367.963 249.161 368.018 248.879 368.018Z" fill="white"/>
<path d="M274.926 354.731H214.715C213.612 354.731 212.718 355.625 212.718 356.727V357.026C212.718 358.129 213.612 359.022 214.715 359.022H274.926C276.029 359.022 276.923 358.129 276.923 357.026V356.727C276.923 355.625 276.029 354.731 274.926 354.731Z" fill="white"/>
<path d="M340.8 354.731H284.707C283.641 354.731 282.776 355.595 282.776 356.661V357.093C282.776 358.158 283.641 359.022 284.707 359.022H340.8C341.867 359.022 342.731 358.158 342.731 357.093V356.661C342.731 355.595 341.867 354.731 340.8 354.731Z" fill="white"/>
<path d="M291.306 368.018H257.291C256.722 368.018 256.176 367.792 255.773 367.39C255.37 366.987 255.144 366.442 255.144 365.873C255.144 365.304 255.37 364.758 255.773 364.356C256.176 363.953 256.722 363.727 257.291 363.727H291.306C291.875 363.727 292.422 363.953 292.824 364.356C293.227 364.758 293.453 365.304 293.453 365.873C293.453 366.154 293.397 366.433 293.29 366.694C293.182 366.954 293.023 367.191 292.824 367.39C292.625 367.589 292.388 367.747 292.128 367.855C291.867 367.963 291.588 368.018 291.306 368.018Z" fill="white"/>
<path d="M368.205 340.116H299.266C297.831 340.116 296.667 341.279 296.667 342.713V343.806C296.667 345.24 297.831 346.403 299.266 346.403H368.205C369.641 346.403 370.804 345.24 370.804 343.806V342.713C370.804 341.279 369.641 340.116 368.205 340.116Z" fill="#72C480"/>
<path d="M174.587 316.134C174.587 316.134 175.364 314.385 175.868 313.546C176.372 312.706 178.521 310.293 178.89 310.842C179.258 311.391 180.72 315.084 179.94 316.119C179.16 317.155 179.992 318.955 176.121 320.042L174.587 316.134Z" fill="#FFB27D"/>
<path d="M131.585 305.102C131.585 305.102 151.393 321.624 159.117 320.097C165.16 318.901 174.426 315.723 174.426 315.723L176.279 320.462C176.279 320.462 167.968 331.73 159.301 331.805C145.752 331.92 135.743 325.944 135.743 325.944L131.585 305.102Z" fill="#95B3EF"/>
<path d="M96.8448 479.413C96.8448 479.413 97.4204 488.682 99.2132 488.815C99.4521 488.835 108.316 488.835 108.316 488.835L119.631 488.769C119.631 488.769 119.556 486.028 116.261 485.453C112.966 484.878 107.418 482.554 105.415 478.185C103.311 473.59 96.8448 479.413 96.8448 479.413Z" fill="#1C4B8E"/>
<path d="M96.1917 480.043C96.1917 480.043 99.6306 481.193 102.318 481.193C104.251 481.168 106.173 480.895 108.037 480.38C108.037 480.38 108.684 474.122 112.247 460.332C114.114 453.104 116.782 443.81 120.578 432.263C131.073 400.34 134.267 381.679 134.558 379.921C134.572 379.829 134.578 379.783 134.578 379.783L134.543 379.766L102.278 365.608C102.278 365.608 106.267 409.609 101.179 426.477C100.406 429.135 99.7888 431.836 99.3313 434.566C96.1169 452.889 96.1917 480.043 96.1917 480.043Z" fill="#FFA561"/>
<path d="M112.247 460.329C114.114 453.102 116.782 443.807 120.578 432.26C131.073 400.338 134.267 381.676 134.558 379.919C134.556 379.867 134.551 379.815 134.543 379.763L102.278 365.605C102.278 365.605 106.267 409.607 101.179 426.474C100.465 428.823 112.247 460.329 112.247 460.329Z" fill="#F4904D"/>
<path d="M122.045 479.413C122.045 479.413 122.621 488.682 124.417 488.815C124.656 488.835 133.519 488.835 133.519 488.835L144.834 488.769C144.834 488.769 144.751 486.028 141.453 485.453C138.155 484.878 132.61 482.554 130.604 478.185C128.497 473.59 122.045 479.413 122.045 479.413Z" fill="#1C4B8E"/>
<path d="M140.339 366.632C140.339 366.632 140.759 395.135 135.824 430.132C130.889 465.129 132.564 479.988 132.564 479.988C132.564 479.988 129.174 481.087 127.804 481.196C124.319 481.484 120.745 480.382 120.745 480.382C120.745 480.382 113.671 445.365 115.706 427.848C117.74 410.331 106.034 367.742 106.034 367.742L140.339 366.632Z" fill="#FFA561"/>
<path d="M117.461 299.931L123.76 304.058L129.496 302.436C130.546 300.941 130.822 298.059 130.837 295.563C130.845 294.033 130.77 292.505 130.612 290.984L122.114 287.245L118.949 285.848C118.949 285.897 119.196 288.45 119.237 288.824C119.818 295.433 117.461 299.931 117.461 299.931Z" fill="#FFB27D"/>
<path d="M140.486 374.555C132.644 382.119 102.975 380.848 101.147 372.513C99.3198 364.179 103.141 301.565 116.532 297.633C119.312 296.817 134.169 301.614 134.169 301.614C135.807 306.127 137.097 310.759 138.028 315.47C138.316 316.979 139.179 332.978 139.839 347.947C140.141 354.95 140.397 361.726 140.529 366.689C140.647 371.337 140.653 374.388 140.486 374.555Z" fill="#AFCDFB"/>
<path d="M119.861 288.931C121.588 291.844 127.631 294.395 130.837 295.563C130.845 294.033 130.77 292.505 130.612 290.984L122.114 287.245C120.238 287.211 119.093 287.631 119.861 288.931Z" fill="#FCA56B"/>
<path d="M133.815 290.467C133.815 290.467 120.123 294.734 117.593 286.173C115.064 277.611 111.596 272.397 120.232 269.309C128.868 266.22 131.536 268.986 133.076 271.638C134.615 274.29 137.315 289.135 133.815 290.467Z" fill="#FFB27D"/>
<path d="M132.543 270.813C132.543 270.813 131.68 280.778 129.608 280.343C127.536 279.909 125.277 278.986 125.579 281.991C125.881 284.997 123.565 290.142 120.604 290.13C114.226 290.104 107.297 273.737 109.044 270.651C114.077 261.707 139.821 259.898 132.543 270.813Z" fill="#163560"/>
<path d="M130.529 297.849C130.351 297.774 120.336 293.285 119.165 293.67C117.994 294.056 116.532 297.633 116.532 297.633L134.169 301.616C134.169 301.616 132.779 298.807 130.529 297.849Z" fill="#95B3EF"/>
<path d="M192.884 346.34L136.739 399.176C135.637 400.211 134.25 400.542 133.654 399.909L131.758 397.896C131.162 397.263 131.577 395.883 132.676 394.862L188.824 342.034C189.923 340.999 191.313 340.668 191.909 341.301L193.802 343.314C194.398 343.938 193.986 345.304 192.884 346.34Z" fill="#1F4D84"/>
<path d="M161.376 375.984L136.739 399.176C135.637 400.211 134.25 400.542 133.654 399.909L131.758 397.896C131.162 397.263 131.577 395.883 132.676 394.862L157.315 371.679L161.376 375.984Z" fill="#739AF0"/>
<path d="M179.98 326.392C181.936 332.799 185.33 338.674 189.904 343.57C194.478 348.467 200.11 352.254 206.371 354.644C212.632 357.033 219.357 357.962 226.032 357.359C232.707 356.757 239.157 354.638 244.888 351.165C250.619 347.693 255.481 342.957 259.102 337.321C262.723 331.685 265.008 325.297 265.783 318.644C266.558 311.99 265.802 305.248 263.573 298.932C261.343 292.615 257.7 286.891 252.92 282.195C252.695 281.971 252.465 281.75 252.229 281.531C245.162 274.888 236.098 270.765 226.444 269.803C216.79 268.841 207.089 271.093 198.849 276.21C190.609 281.327 184.291 289.022 180.879 298.098C177.467 307.173 177.151 317.121 179.98 326.395V326.392ZM192.559 285.802C198.053 279.966 205.155 275.89 212.967 274.089C220.779 272.287 228.95 272.841 236.447 275.681C243.944 278.52 250.43 283.517 255.085 290.041C259.74 296.564 262.355 304.321 262.599 312.329C262.843 320.338 260.705 328.238 256.455 335.033C252.206 341.827 246.036 347.209 238.726 350.499C231.415 353.789 223.293 354.838 215.386 353.515C207.479 352.191 200.142 348.554 194.303 343.064C190.42 339.422 187.294 335.05 185.105 330.199C182.915 325.349 181.705 320.114 181.543 314.794C181.381 309.475 182.27 304.176 184.161 299.201C186.051 294.226 188.905 289.673 192.559 285.802Z" fill="#1F4D84"/>
<g opacity="0.5">
<path d="M251.599 341.315C246.106 347.15 239.004 351.226 231.193 353.028C223.382 354.83 215.211 354.276 207.715 351.437C200.218 348.598 193.732 343.602 189.077 337.079C184.422 330.556 181.808 322.801 181.563 314.793C181.319 306.785 183.456 298.885 187.705 292.091C191.954 285.297 198.123 279.915 205.432 276.625C212.742 273.335 220.863 272.285 228.77 273.607C236.677 274.93 244.013 278.566 249.852 284.056C253.749 287.689 256.887 292.057 259.086 296.909C261.285 301.76 262.5 306.999 262.663 312.322C262.825 317.645 261.931 322.948 260.032 327.924C258.133 332.901 255.267 337.452 251.599 341.315Z" fill="#B3CFF9"/>
</g>
<path d="M140.529 366.678C109.59 344.646 112.163 315.248 112.163 315.248C123.473 321.621 134.69 335.713 139.838 347.936C140.146 354.95 140.397 361.726 140.529 366.678Z" fill="#95B3EF"/>
<path d="M171.062 356.655C173.243 356.152 174.708 354.504 175.013 354.217C175.013 354.217 175.943 354.28 174.861 356.264C174.771 356.428 174.573 356.839 174.418 357.156C174.401 357.185 174.393 357.217 174.392 357.25C174.392 357.283 174.401 357.316 174.417 357.345C174.433 357.374 174.457 357.398 174.485 357.415C174.513 357.433 174.546 357.442 174.579 357.443C175.839 357.538 177.105 357.041 179.528 357.544C179.865 357.616 179.96 358.407 179.949 358.758C179.926 359.333 179.969 359.983 179.295 360.869C178.907 361.383 177.816 361.938 175.387 362.916C174.464 363.287 171.819 363.005 169.344 362.157L167.364 361.239L167.977 357.561L168.475 357.665C169.261 357.823 170.239 356.857 171.062 356.655Z" fill="#FFB27D"/>
<path d="M121.766 301.616C121.766 301.616 93.9672 306.905 129.945 347.133C135.7 353.57 166.78 361.947 166.78 361.947C166.78 361.947 169.946 359.264 168.343 357.095C168.343 357.095 146.941 341.565 142.23 339.092C140.112 337.982 134.008 314.299 130.555 308.608C127.102 302.916 121.766 301.616 121.766 301.616Z" fill="#AFCDFB"/>
<path d="M175.341 316.637C175.341 316.637 176.251 314.912 176.426 313.983C176.602 313.054 177.75 310.397 178.222 309.925C178.412 309.738 179.033 309.982 179.105 310.788C179.137 311.141 178.964 311.78 178.659 312.545C178.162 313.787 178.245 315.475 178.084 316.036C177.641 317.425 175.341 316.637 175.341 316.637Z" fill="#FFB27D"/>
<path d="M547.014 263.597L531.276 267.258L523.495 281.41L517.552 249.16L547.014 263.597Z" fill="#233862"/>
<path d="M530.42 264.157L528.126 265.894L538.178 279.152L540.472 277.416L530.42 264.157Z" fill="#233862"/>
<path d="M495.12 412.655C495.12 412.655 501.627 405.019 495.485 400.202C495.485 400.202 490.999 397.508 487.35 397.74C487.35 397.74 492.55 406.391 490.878 407.257C489.206 408.122 485.782 397.191 485.782 397.191C485.782 397.191 475.592 396.236 472.32 397.821C472.32 397.821 481.051 404.916 479.226 405.347C477.402 405.779 467.965 398.816 467.965 398.816C467.965 398.816 458.492 400.458 459.016 406.236C459.539 412.014 462.811 413.788 464.247 413.63C465.683 413.472 474.069 410.242 474.256 411.415C474.443 412.589 469.401 416.448 465.862 416.641C465.862 416.641 472.567 423.986 477.005 421.846C481.442 419.707 481.807 416.333 484.573 415.062C487.339 413.791 489.701 413.785 488.562 415.062C487.422 416.339 482.415 417.624 480.841 420.428C479.266 423.232 477.851 425.125 482.446 424.42C487.042 423.716 494.498 420.331 494.821 416.48L495.12 412.655Z" fill="#82B378"/>
<path d="M463.666 406.386C463.666 406.386 489.411 405.313 495.12 412.655C495.12 412.655 496.392 416.414 500.271 419.845L500.881 421.484C500.881 421.484 496.403 416.796 494.806 416.517C494.806 416.503 497.275 407.378 463.666 406.386Z" fill="#82B378"/>
<path d="M500.271 419.83C500.271 419.83 505.811 423.897 506.219 431.193L505.215 431.288C505.215 431.288 503.425 423.744 500.228 420.805C497.031 417.866 500.271 419.83 500.271 419.83Z" fill="#82B378"/>
<path d="M529.647 392.515C529.647 392.515 519.238 386.734 524.062 378.829C524.062 378.829 527.924 373.971 532.076 372.712C532.076 372.712 529.898 384.485 532.114 384.756C534.329 385.026 533.596 371.463 533.596 371.463C533.596 371.463 544.531 366.169 548.816 366.574C548.816 366.574 542.068 378.078 544.281 377.79C546.494 377.503 554.079 365.855 554.079 365.855C554.079 365.855 565.303 363.742 567.113 370.382C568.923 377.022 566.036 380.353 564.376 380.773C562.716 381.193 552.048 381.089 552.33 382.472C552.612 383.856 559.812 386.047 563.841 384.773C563.841 384.773 559.444 395.724 553.622 395.19C547.8 394.655 545.993 391.06 542.399 390.795C538.804 390.531 536.168 391.506 537.97 392.469C539.771 393.432 545.866 392.757 548.784 395.224C551.702 397.692 554.059 399.201 548.661 400.326C543.262 401.45 533.564 400.789 531.613 396.642L529.647 392.515Z" fill="#A8D29F"/>
<path d="M561.996 372.479C561.996 372.479 532.931 381.969 529.647 392.515C529.647 392.515 529.8 397.223 526.908 402.63V404.706C526.908 404.706 529.932 397.637 531.593 396.653C531.598 396.662 525.06 387.545 561.996 372.479Z" fill="#82B378"/>
<path d="M526.916 402.627C526.916 402.627 522.453 409.448 525.034 417.728L526.185 417.415C526.185 417.415 525.034 408.289 527.368 403.691C529.702 399.092 526.916 402.627 526.916 402.627Z" fill="#82B378"/>
<path d="M513.103 384.549C513.103 384.549 526.772 376.841 520.349 366.462C520.349 366.462 515.215 360.092 509.733 358.467C509.733 358.467 512.703 373.968 509.782 374.342C506.861 374.716 507.719 356.831 507.719 356.831C507.719 356.831 493.272 349.929 487.615 350.504C487.615 350.504 496.608 365.62 493.687 365.263C490.766 364.906 480.674 349.612 480.674 349.612C480.674 349.612 465.873 346.923 463.528 355.689C461.183 364.455 465.03 368.82 467.223 369.361C469.416 369.902 483.474 369.675 483.117 371.501C482.76 373.327 473.272 376.278 467.971 374.664C467.971 374.664 473.859 389.061 481.525 388.308C489.192 387.554 491.551 382.803 496.297 382.421C501.042 382.038 504.516 383.309 502.147 384.592C499.779 385.875 491.741 385.043 487.917 388.313C484.092 391.583 481.01 393.602 488.121 395.037C495.232 396.472 508.024 395.523 510.568 390.042L513.103 384.549Z" fill="#A8D29F"/>
<path d="M470.285 358.41C470.285 358.41 508.666 370.704 513.103 384.549C513.103 384.549 512.939 390.755 516.795 397.858V400.596C516.795 400.596 512.749 391.301 510.553 390.033C510.553 390.033 519.097 377.963 470.285 358.41Z" fill="#82B378"/>
<path d="M516.787 397.858C516.787 397.858 522.729 406.814 519.377 417.748L517.854 417.343C517.854 417.343 519.293 405.307 516.179 399.268C513.066 393.228 516.787 397.858 516.787 397.858Z" fill="#82B378"/>
<path d="M622.745 489.513H482.386C462.817 467.145 467.997 436.925 493.957 411.441C497.224 408.238 503.489 405.963 510.243 404.361C522.692 401.404 536.813 400.726 536.922 400.665C536.963 400.665 544.384 394.626 548.848 389.236C562.718 372.456 574.517 373.896 574.517 373.896C588.656 371.147 600.705 370.339 609.655 375.311C617.937 379.913 623.545 389.507 625.643 407.11C626.04 410.441 626.314 414.056 626.455 417.981C626.967 432.269 629.784 444.977 631.456 455.739C633.888 471.338 635.6 483.192 622.745 489.513Z" fill="#FFA561"/>
<path d="M602.65 393.263C594.072 397.93 593.122 413.316 579.697 417.288C566.272 421.26 543.475 420.9 530.548 434.914C518.076 448.431 504.32 414.035 510.243 404.361C522.692 401.404 536.813 400.726 536.922 400.665C536.963 400.665 544.384 394.626 548.848 389.236C562.718 372.456 574.517 373.896 574.517 373.896C588.656 371.147 600.705 370.339 609.655 375.311C619.505 385.486 611.234 388.592 602.65 393.263Z" fill="#F4904D"/>
<path d="M509.794 459.777C509.794 459.777 512.266 466.325 511.753 468.758C511.241 471.191 512.096 475.905 511.106 478.016C510.116 480.126 508.346 483.192 510.058 483.969C510.706 484.256 518.225 478.392 518.651 476.667C519.077 474.941 519.4 469.854 520.833 467.087C522.266 464.321 521.051 462.097 518.962 461.088C516.873 460.079 513.949 454.528 513.949 454.528L509.794 459.777Z" fill="#F9DDBF"/>
<path d="M549.99 397.686C549.99 397.686 508.927 395.152 503.635 400.596C498.061 406.331 507.143 462.739 507.143 462.739C507.143 462.739 518.277 463.058 519.155 460.11C519.155 460.11 517.066 432.789 518.804 428.076C520.542 423.362 519.44 416.814 519.44 416.814C519.44 416.814 541.227 420.066 548.137 418.41C555.046 416.753 549.99 397.686 549.99 397.686Z" fill="#233862"/>
<path d="M559.938 367.567C559.938 367.601 553.895 381.681 550.934 383.183C547.973 384.684 537.296 396.964 535.003 396.751C532.709 396.538 537.368 399.259 537.368 399.259C537.368 399.259 556.361 389.996 557.455 389.458C558.548 388.92 564.258 379.507 565.044 374.73C565.829 369.954 559.938 367.567 559.938 367.567Z" fill="#FFB27D"/>
<path d="M502.214 470.584C502.214 470.584 499.874 477.182 497.897 478.709C495.92 480.236 493.543 484.391 491.425 485.366C489.307 486.341 485.957 487.546 486.78 489.237C487.088 489.879 496.622 490.244 498.061 489.2C499.5 488.156 503.031 484.478 505.912 483.287C508.792 482.096 509.299 479.617 508.355 477.498C507.411 475.378 508.76 469.253 508.76 469.253L502.214 470.584Z" fill="#F9DDBF"/>
<path d="M572.304 361.311C571.441 360.299 593.666 362.795 596.624 374.149C596.624 374.149 613.704 360.696 598.037 349.356C592.612 345.434 592.066 341.241 591.28 337.407C590.494 333.573 585.079 322.556 575.688 328.026C575.688 328.026 571.401 328.049 568.684 330.398C562.514 335.748 555.777 369.726 572.304 361.311Z" fill="#163560"/>
<path d="M567.979 399.676C567.979 399.676 523.333 404.229 519.414 408.784C515.494 413.339 500.09 472.563 500.09 472.563C500.09 472.563 504.648 475.099 508.786 472.727C508.786 472.727 520.585 452.633 525.814 446.326C531.043 440.019 532.988 420.544 533.852 420.345C534.715 420.147 562.692 424.236 572.324 416.842C581.956 409.448 567.979 399.676 567.979 399.676Z" fill="#2A4E96"/>
<path d="M592.817 359.183C592.817 359.183 582.169 354.432 568.664 356.595C565.904 357.041 563.421 357.949 561.446 361.196C558.661 365.798 557.357 368.248 557.357 368.248C557.357 368.248 557.625 370.376 561.435 372.067C560.396 375.872 562.385 382.515 560.572 385.095C558.759 387.675 547.4 394.071 546.839 397.628C545.812 404.162 566.232 416 572.324 414.731C589.838 411.105 601.738 364.184 592.817 359.183Z" fill="#F9DDBF"/>
<path d="M586.796 345.724C586.796 345.724 588.894 341.594 589.171 338.207C589.369 335.791 587.323 327.088 578.58 329.196C576.818 329.613 575.172 330.418 573.763 331.555C571.962 333.036 569.446 336.101 573.283 343.501L574.336 346.023L586.796 345.724Z" fill="#163560"/>
<path d="M574.811 359.652C573.927 360.584 574.275 363.678 578.414 363.448C581.13 363.296 586.952 359.937 586.408 357.619C586.149 356.514 584.06 353.673 583.565 347.13L583.073 347.268L574.779 349.601C574.779 349.601 575.182 352.235 575.383 354.728C575.55 356.825 575.176 359.267 574.811 359.652Z" fill="#FFB27D"/>
<path d="M574.779 349.601C574.779 349.601 575.182 352.235 575.383 354.729C580.089 354.225 582.238 349.73 583.073 347.268L574.779 349.601Z" fill="#F4A269"/>
<path d="M574.604 353.432C574.604 353.432 585.456 350.699 583.648 343.973C581.841 337.246 582.025 332.363 575.015 333.824C568.005 335.285 567.36 338.209 567.418 340.602C567.475 342.995 571.734 353.969 574.604 353.432Z" fill="#FFB27D"/>
<path d="M570.057 334.983C570.057 334.983 573.703 341.919 580.578 342.664C584.607 343.101 585.703 345.75 585.703 345.75C585.703 345.75 584.494 338.178 582.471 333.548C582.471 333.548 571.277 330.629 570.057 334.983Z" fill="#163560"/>
<path d="M571.3 335.906C571.3 335.906 568.926 338.33 568.192 340.041C567.107 342.572 569.228 347.901 570.103 349.049C570.103 349.049 565.049 340.49 566.736 336.78C568.523 332.843 571.3 335.906 571.3 335.906Z" fill="#163560"/>
<path d="M538.229 398.362C538.229 398.362 536.067 400.648 535.806 400.772C534.367 401.442 532.571 401.059 531.699 401.272C530.827 401.485 530.977 400.947 531.618 400.507C532.26 400.067 533.846 400.24 533.198 400.079C532.551 399.918 529.057 399.268 527.731 399.621C525.65 400.179 524.007 399.524 523.877 399.311C523.748 399.098 528.628 396.723 530.024 396.792C531.42 396.861 535.431 396.677 535.431 396.677L538.229 398.362Z" fill="#FFB27D"/>
<path d="M596.497 363.399C596.497 363.399 609.965 393.775 606.224 398.235C602.483 402.696 576.601 397.283 576.601 397.283L577.398 394.462C577.398 394.462 596.454 393.312 597.813 392.915C599.764 392.363 588.158 371.058 588.158 371.058L596.497 363.399Z" fill="#FFB27D"/>
<path d="M591.476 358.683C591.801 358.683 595.824 360.009 598.713 365.723C601.554 371.337 602.59 374.063 602.59 374.063C602.59 374.063 590.002 383.818 584.995 380.229C579.988 376.64 586.857 358.565 591.476 358.683Z" fill="#F9DDBF"/>
<path d="M579.622 394.324C579.622 394.324 577.458 392.921 576.583 392.156C575.709 391.391 570.641 390.764 570.644 391.276C570.647 391.787 573.596 392.486 573.919 393.001C574.241 393.516 576.042 395.624 577.582 395.618C578.012 395.626 578.434 395.507 578.797 395.277C579.159 395.047 579.446 394.716 579.622 394.324Z" fill="#FFB27D"/>
<path d="M573.714 398.888L567.907 398.063C567.044 397.939 566.157 397.2 565.941 396.444L562.733 385.112C562.517 384.345 563.044 383.818 563.91 383.942L569.717 384.767C570.158 384.84 570.572 385.029 570.917 385.313C571.263 385.597 571.526 385.968 571.683 386.386L574.888 397.715C575.107 398.488 574.58 399.015 573.714 398.888Z" fill="#1F4A91"/>
<path d="M572.506 398.718L566.698 397.893C565.835 397.769 564.949 397.03 564.733 396.277L561.524 384.946C561.308 384.175 561.835 383.649 562.701 383.772L568.508 384.598C568.95 384.671 569.364 384.859 569.709 385.143C570.054 385.427 570.318 385.798 570.474 386.217L573.68 397.548C573.898 398.313 573.372 398.842 572.506 398.718Z" fill="#233862"/>
<path d="M562.517 385.219C562.425 384.9 562.644 384.681 563.006 384.733C563.189 384.763 563.361 384.841 563.504 384.959C563.648 385.077 563.757 385.232 563.821 385.406C563.913 385.725 563.694 385.944 563.331 385.892C563.148 385.861 562.977 385.783 562.834 385.665C562.691 385.547 562.581 385.393 562.517 385.219Z" fill="#1F4A91"/>
<path d="M576.601 397.283C576.601 397.283 572.673 397.338 571.688 397.105C570.704 396.872 568.183 393.752 568.857 392.969C569.277 392.478 571.625 393.36 572.745 393.358C573.864 393.355 576.773 391.738 578.756 395.046C578.981 395.417 576.601 397.283 576.601 397.283Z" fill="#FFB27D"/>
<path d="M593.461 404.755C593.461 404.755 589.231 408.715 571.533 409.282C553.835 409.848 530.764 429.398 530.548 434.914C530.332 440.43 566.183 448.817 566.739 448.029C567.294 447.241 589.473 428.185 589.473 428.185L593.461 404.755Z" fill="#FFA561"/>
<path d="M631.459 455.745C611.772 431.184 571.314 464.66 560.856 463.722C551.233 462.86 579.622 429.283 614.829 424.288C629.059 422.275 625.652 407.57 625.646 407.116C626.043 410.446 626.317 414.061 626.458 417.987C626.97 432.274 629.787 444.983 631.459 455.745Z" fill="#F4904D"/>
<path d="M682.89 491L11.6001 490.767C11.3836 490.767 11.1762 490.68 11.0231 490.527C10.8699 490.374 10.7836 490.167 10.7828 489.951V489.531C10.7836 489.314 10.8703 489.106 11.0241 488.953C11.1778 488.8 11.386 488.714 11.603 488.714L682.89 488.944C683.108 488.945 683.316 489.031 683.469 489.185C683.623 489.338 683.71 489.546 683.711 489.764V490.183C683.709 490.4 683.622 490.607 683.468 490.76C683.315 490.913 683.107 490.999 682.89 491Z" fill="#2E3552"/>
<path d="M405.605 117.564L443.948 125.493L419.366 106.406L417.708 111.927L408.195 113.046L405.605 117.564Z" fill="#95B3EF"/>
<path d="M443.948 125.493L412.788 106.898L381.334 103.343L443.948 125.493Z" fill="#F9DDBF"/>
<path d="M419.366 106.406L443.948 125.493L425.778 96.924L419.366 106.406Z" fill="#F9DDBF"/>
<path d="M164.662 225.405L126.319 233.331L150.901 214.244L152.558 219.768L162.072 220.884L164.662 225.405Z" fill="#95B3EF"/>
<path d="M126.319 233.331L157.479 214.735L188.933 211.184L126.319 233.331Z" fill="#F9DDBF"/>
<path d="M150.901 214.244L126.319 233.331L144.489 204.762L150.901 214.244Z" fill="#F9DDBF"/>
<path d="M227.486 236.477L228.609 235.143C229.622 236.023 230.637 236.52 231.955 236.52C233.106 236.52 233.835 235.991 233.835 235.157C233.835 234.401 233.411 234.007 231.44 233.524C229.184 232.992 227.909 232.327 227.909 230.343C227.909 228.525 229.426 227.269 231.532 227.269C232.934 227.24 234.299 227.712 235.383 228.6L234.381 230.009C233.426 229.296 232.473 228.919 231.504 228.919C230.413 228.919 229.777 229.495 229.777 230.205C229.777 231.024 230.263 231.387 232.292 231.873C234.537 232.416 235.702 233.219 235.702 235.008C235.702 236.992 234.142 238.171 231.915 238.171C230.279 238.18 228.699 237.575 227.486 236.477Z" fill="#72C480"/>
<path d="M237.245 234.021C237.245 231.72 238.868 229.857 241.156 229.857C243.702 229.857 244.992 231.87 244.992 234.171C244.992 234.291 244.974 234.593 244.96 234.685H239.081C239.132 235.254 239.399 235.781 239.827 236.159C240.255 236.536 240.812 236.736 241.383 236.716C241.791 236.718 242.195 236.634 242.568 236.469C242.942 236.305 243.276 236.063 243.55 235.761L244.626 236.716C244.233 237.2 243.733 237.588 243.166 237.848C242.598 238.108 241.978 238.233 241.354 238.214C239.035 238.203 237.245 236.52 237.245 234.021ZM243.173 233.463C243.049 232.281 242.353 231.358 241.141 231.358C240.019 231.358 239.23 232.221 239.063 233.463H243.173Z" fill="#72C480"/>
<path d="M251.734 238.021V237.035C251.418 237.411 251.021 237.71 250.572 237.909C250.123 238.108 249.635 238.203 249.144 238.185C247.63 238.185 246.295 237.323 246.295 235.686C246.295 233.915 247.676 233.066 249.538 233.066C250.289 233.053 251.037 233.165 251.751 233.397V233.247C251.751 232.14 251.055 231.536 249.783 231.536C248.989 231.537 248.204 231.707 247.481 232.034L246.983 230.567C247.933 230.114 248.975 229.885 250.028 229.9C252.393 229.9 253.544 231.142 253.544 233.276V238.019L251.734 238.021ZM251.78 234.674C251.193 234.46 250.572 234.351 249.947 234.355C248.796 234.355 248.111 234.823 248.111 235.629C248.111 236.385 248.793 236.808 249.656 236.808C250.871 236.808 251.78 236.126 251.78 235.128V234.674Z" fill="#72C480"/>
<path d="M255.734 230.024H257.559V231.827C258.059 230.63 258.998 229.814 260.393 229.871V231.812H260.287C258.681 231.812 257.559 232.856 257.559 234.976V238.021H255.726L255.734 230.024Z" fill="#72C480"/>
<path d="M261.282 234.038C261.275 233.49 261.377 232.945 261.582 232.436C261.788 231.928 262.093 231.465 262.48 231.076C262.866 230.686 263.327 230.378 263.834 230.169C264.342 229.959 264.886 229.853 265.435 229.857C266.036 229.829 266.636 229.938 267.19 230.175C267.744 230.411 268.237 230.769 268.632 231.223L267.481 232.451C266.92 231.876 266.33 231.45 265.403 231.45C264.071 231.45 263.101 232.6 263.101 234.038C263.101 235.476 264.085 236.627 265.495 236.627C266.359 236.627 266.995 236.218 267.57 235.626L268.678 236.719C268.126 237.376 267.386 237.849 266.557 238.072C265.728 238.296 264.85 238.26 264.043 237.969C263.235 237.679 262.535 237.147 262.039 236.447C261.543 235.746 261.274 234.911 261.268 234.053L261.282 234.038Z" fill="#72C480"/>
<path d="M270.373 226.964H272.209V231.277C272.724 230.521 273.467 229.868 274.71 229.868C276.512 229.868 277.559 231.079 277.559 232.943V238.033H275.723V233.489C275.723 232.247 275.104 231.533 273.996 231.533C272.888 231.533 272.195 232.275 272.195 233.518V238.033H270.359L270.373 226.964Z" fill="#72C480"/>
<path d="M279.648 235.945H281.663V238.021H279.648V235.945Z" fill="#72C480"/>
<path d="M283.726 235.945H285.741V238.021H283.726V235.945Z" fill="#72C480"/>
<path d="M287.804 235.945H289.818V238.021H287.804V235.945Z" fill="#72C480"/>
<path d="M291.879 235.945H293.893V238.021H291.879V235.945Z" fill="#72C480"/>
<path d="M397.892 335.561C397.892 335.173 398.007 334.793 398.223 334.471C398.439 334.148 398.745 333.897 399.104 333.749C399.463 333.6 399.857 333.561 400.238 333.637C400.619 333.713 400.968 333.899 401.243 334.174C401.517 334.448 401.704 334.797 401.78 335.178C401.856 335.558 401.817 335.953 401.668 336.311C401.52 336.67 401.268 336.976 400.945 337.191C400.623 337.407 400.243 337.522 399.855 337.522C399.334 337.522 398.835 337.315 398.467 336.947C398.099 336.58 397.892 336.081 397.892 335.561Z" fill="#D7E5FF"/>
<path d="M489.163 336.09H400.384C400.244 336.09 400.109 336.034 400.01 335.935C399.911 335.836 399.855 335.701 399.855 335.561C399.855 335.491 399.869 335.423 399.895 335.359C399.922 335.295 399.961 335.236 400.01 335.188C400.059 335.139 400.118 335.1 400.182 335.074C400.246 335.047 400.315 335.034 400.384 335.034H489.163C489.232 335.034 489.301 335.047 489.365 335.074C489.43 335.1 489.488 335.139 489.537 335.188C489.586 335.236 489.626 335.295 489.652 335.359C489.679 335.423 489.693 335.491 489.693 335.561C489.693 335.701 489.637 335.836 489.537 335.935C489.438 336.034 489.303 336.09 489.163 336.09Z" fill="#D7E5FF"/>
</g>
<defs>
<clipPath id="clip0_5_226">
<rect width="693" height="491" fill="white"/>
</clipPath>
</defs>
</svg>
